<svg width="264" height="264" viewBox="0 0 264 264" fill="none" xmlns="http://www.w3.org/2000/svg">
<g filter="url(#filter0_d)">
<path d="M4 0H260V256H4V0Z" fill="white"/>
</g>
<path d="M105.743 122.64C105.743 122.64 165.597 121.873 165.597 186.586C165.597 121.617 225.45 122.64 225.45 122.64C225.45 122.64 165.597 123.407 165.597 58.6941C165.341 123.407 105.743 122.64 105.743 122.64Z" fill="#3BB7D6"/>
<path d="M172.247 91.1787C168.155 82.7378 165.597 72.2506 165.597 58.6941C165.597 121.361 109.58 122.64 105.999 122.64C107.79 122.64 120.579 122.896 133.624 129.29C147.436 125.198 165.085 115.222 172.247 91.1787Z" fill="#7CCBD8"/>
<path d="M37.9604 178.145C37.9604 178.145 80.6764 177.634 80.6764 223.931C80.6764 177.634 123.392 178.145 123.392 178.145C123.392 178.145 80.6764 178.657 80.6764 132.36C80.6764 178.657 37.9604 178.145 37.9604 178.145Z" fill="#3BB7D6"/>
<path d="M86.5595 157.683C82.9785 151.288 80.6765 143.103 80.6765 132.36C80.6765 177.122 40.7741 178.145 38.2163 178.145C39.4952 178.145 50.2382 178.401 60.4695 184.284C69.9335 180.959 81.6996 173.797 86.5595 157.683Z" fill="#7CCBD8"/>
<path d="M66.3525 67.9023C66.3525 67.9023 100.372 67.3907 100.372 104.479C100.372 67.3907 134.391 67.9023 134.391 67.9023C134.391 67.9023 100.372 68.4139 100.372 31.3252C100.372 68.1581 66.3525 67.9023 66.3525 67.9023Z" fill="#3BB7D6"/>
<path d="M105.999 52.8111C102.674 47.6954 100.628 40.5334 100.628 31.3252C100.628 67.135 68.6547 67.9023 66.6084 67.9023C67.6315 67.9023 77.0955 68.1581 85.5364 73.5296C92.9542 70.9717 101.907 65.3445 105.999 52.8111Z" fill="#7CCBD8"/>
<path d="M168.922 58.6941C168.922 56.9036 167.387 55.3689 165.597 55.3689C163.806 55.3689 162.271 56.9036 162.271 58.6941C162.016 117.269 111.626 119.315 105.999 119.315C105.232 119.315 104.464 119.571 103.953 120.082C103.441 120.338 103.185 120.594 102.93 121.105C102.418 122.129 102.418 123.407 102.93 124.431C103.441 125.454 104.72 126.221 105.743 126.221C105.743 126.221 105.743 126.221 105.999 126.221C111.882 126.221 162.016 128.267 162.016 186.842C162.016 188.632 163.55 190.167 165.341 190.167C167.131 190.167 168.666 188.632 168.666 186.842C168.666 128.267 219.056 126.221 224.683 126.221C225.962 126.221 226.985 125.454 227.752 124.431C228.264 123.407 228.264 122.129 227.496 121.105C226.985 120.082 225.706 119.571 224.683 119.315C219.311 119.315 168.922 117.269 168.922 58.6941ZM165.341 161.775C157.923 137.476 139.762 126.988 125.439 122.64C139.762 118.036 157.923 107.549 165.341 83.5051C172.759 107.805 190.919 118.292 205.243 122.64C190.919 127.244 173.014 137.731 165.341 161.775Z" fill="#2AB7DA"/>
<path d="M103.953 104.479C103.953 72.5064 131.322 71.2275 134.647 71.2275H134.903C136.693 71.2275 138.228 69.6928 138.228 67.9023C138.228 66.1118 136.693 64.5771 134.903 64.5771C131.833 64.5771 104.209 63.554 104.209 31.3252C104.209 29.5347 102.674 28 100.884 28C99.093 28 97.5583 29.5347 97.5583 31.3252C97.5583 63.2982 70.1894 64.5771 66.8643 64.5771C66.6085 64.5771 66.6085 64.5771 66.6085 64.5771C64.818 64.8329 63.5391 66.1118 63.5391 67.9023C63.5391 69.6928 65.0738 71.2275 66.8643 71.2275C69.9337 71.2275 97.5583 72.2506 97.5583 104.479C97.5583 106.27 99.093 107.805 100.884 107.805C102.418 107.805 103.953 106.27 103.953 104.479ZM81.9555 67.9023C89.1175 64.8329 96.2794 59.2057 100.372 49.7416C104.465 59.4614 111.882 64.8329 118.788 67.9023C111.626 70.9717 104.465 76.599 100.372 86.063C96.2794 76.0874 88.8617 70.7159 81.9555 67.9023Z" fill="#2AB7DA"/>
<path d="M124.16 174.82C123.904 174.82 123.648 174.82 123.392 174.82C119.3 174.82 84.2574 173.285 84.2574 132.616C84.2574 130.825 82.7227 129.29 80.9322 129.29C79.1418 129.29 77.6071 130.825 77.6071 132.616C77.6071 173.541 42.5646 174.82 38.4721 174.82C38.2163 174.82 37.9605 174.82 37.7047 174.82C36.17 175.076 34.8911 176.611 34.8911 178.145C34.8911 179.936 36.4258 181.47 38.2163 181.47C42.3089 181.47 77.3513 182.749 77.3513 223.675C77.3513 225.465 78.886 227 80.6765 227C82.467 227 84.0017 225.465 84.0017 223.675C84.0017 182.749 119.044 181.47 123.137 181.47C124.927 181.47 126.462 179.936 126.462 178.145C126.718 176.355 125.694 175.076 124.16 174.82ZM80.6765 202.956C75.305 188.632 64.5621 181.47 55.3538 178.145C64.8178 174.564 75.305 167.658 80.6765 153.334C86.0479 167.658 96.7909 174.82 105.999 178.145C96.7909 181.47 86.0479 188.632 80.6765 202.956Z" fill="#2AB7DA"/>
<defs>
<filter id="filter0_d" x="0" y="0" width="264" height="264" filterUnits="userSpaceOnUse" color-interpolation-filters="sRGB">
<feFlood flood-opacity="0" result="BackgroundImageFix"/>
<feColorMatrix in="SourceAlpha" type="matrix" values="0 0 0 0 0 0 0 0 0 0 0 0 0 0 0 0 0 0 127 0"/>
<feOffset dy="4"/>
<feGaussianBlur stdDeviation="2"/>
<feColorMatrix type="matrix" values="0 0 0 0 0 0 0 0 0 0 0 0 0 0 0 0 0 0 0.25 0"/>
<feBlend mode="normal" in2="BackgroundImageFix" result="effect1_dropShadow"/>
<feBlend mode="normal" in="SourceGraphic" in2="effect1_dropShadow" result="shape"/>
</filter>
</defs>
</svg>
