<svg width="264" height="264" viewBox="0 0 264 264" fill="none" xmlns="http://www.w3.org/2000/svg">
<g filter="url(#filter0_d)">
<path d="M4 0H260V256H4V0Z" fill="white"/>
</g>
<path d="M166.86 29C166.86 29 184.352 71.7927 109.385 100.536C68.6492 116.151 37.3619 156.171 74.7189 217.993C77.8127 190.36 91.0785 129.432 148.121 115.529C148.121 115.529 95.0293 135.381 90.3393 225.245C117.62 229.075 181.601 231.649 200.597 176.125C225.681 102.767 166.86 29 166.86 29Z" fill="#3A7F0D"/>
<path d="M89.9529 224.871C147.868 201.757 190.008 147.611 195.824 82.9734C183.984 51.0366 166.449 29 166.449 29C166.449 29 183.941 71.7927 108.974 100.536C68.238 116.151 36.9508 156.171 74.3077 217.993C77.4015 190.36 90.6674 129.432 147.71 115.528C147.707 115.529 94.7729 135.332 89.9529 224.871Z" fill="#49A010"/>
<path d="M68.5289 101.963C71.5191 101.963 73.9431 99.5389 73.9431 96.5488C73.9431 93.5586 71.5191 91.1346 68.5289 91.1346C65.5388 91.1346 63.1147 93.5586 63.1147 96.5488C63.1147 99.5389 65.5388 101.963 68.5289 101.963Z" fill="#3A7F0D"/>
<path d="M85.5439 95.0017C87.6796 95.0017 89.411 93.2703 89.411 91.1346C89.411 88.9988 87.6796 87.2675 85.5439 87.2675C83.4081 87.2675 81.6768 88.9988 81.6768 91.1346C81.6768 93.2703 83.4081 95.0017 85.5439 95.0017Z" fill="#49A010"/>
<path d="M82.0638 64.0644C87.4031 64.0644 91.7316 59.736 91.7316 54.3966C91.7316 49.0573 87.4031 44.7289 82.0638 44.7289C76.7244 44.7289 72.396 49.0573 72.396 54.3966C72.396 59.736 76.7244 64.0644 82.0638 64.0644Z" fill="#49A010"/>
<path d="M111.841 79.5332C113.549 79.5332 114.935 78.1481 114.935 76.4395C114.935 74.7308 113.549 73.3457 111.841 73.3457C110.132 73.3457 108.747 74.7308 108.747 76.4395C108.747 78.1481 110.132 79.5332 111.841 79.5332Z" fill="#49A010"/>
<path d="M137.754 67.9315C142.666 67.9315 146.648 63.9494 146.648 59.0371C146.648 54.1248 142.666 50.1427 137.754 50.1427C132.842 50.1427 128.859 54.1248 128.859 59.0371C128.859 63.9494 132.842 67.9315 137.754 67.9315Z" fill="#49A010"/>
<defs>
<filter id="filter0_d" x="0" y="0" width="264" height="264" filterUnits="userSpaceOnUse" color-interpolation-filters="sRGB">
<feFlood flood-opacity="0" result="BackgroundImageFix"/>
<feColorMatrix in="SourceAlpha" type="matrix" values="0 0 0 0 0 0 0 0 0 0 0 0 0 0 0 0 0 0 127 0"/>
<feOffset dy="4"/>
<feGaussianBlur stdDeviation="2"/>
<feColorMatrix type="matrix" values="0 0 0 0 0 0 0 0 0 0 0 0 0 0 0 0 0 0 0.25 0"/>
<feBlend mode="normal" in2="BackgroundImageFix" result="effect1_dropShadow"/>
<feBlend mode="normal" in="SourceGraphic" in2="effect1_dropShadow" result="shape"/>
</filter>
</defs>
</svg>
